<svg xmlns="http://www.w3.org/2000/svg" xmlns:xlink="http://www.w3.org/1999/xlink" width="372.531" height="128.36" viewBox="0 0 372.531 128.36"><defs><linearGradient id="a" x1="-0.186" y1="0.405" x2="0.627" y2="0.534" gradientUnits="objectBoundingBox"><stop offset="0" stop-color="#00b993"/><stop offset="1" stop-color="#0080bc"/></linearGradient></defs><g transform="translate(-3722 6690)"><g transform="translate(3722 -6690)"><g transform="translate(0 0)"><path d="M103.485,28.937a8.7,8.7,0,0,0,2.9-.4,6.179,6.179,0,0,0,1.988-1.125,4.368,4.368,0,0,0,1.149-1.583,5.392,5.392,0,0,0,.4-1.888,3.6,3.6,0,0,0-.388-1.784,3.305,3.305,0,0,0-1.109-1.194,5.575,5.575,0,0,0-1.727-.694A10.014,10.014,0,0,0,104.5,20h-.182a8.027,8.027,0,0,0-2.907.458,5.918,5.918,0,0,0-1.972,1.187,4.445,4.445,0,0,0-1.426,2.978,3.827,3.827,0,0,0,1.267,3.117A6.527,6.527,0,0,0,103.485,28.937Z" transform="translate(194.064 39.605)" fill="#0080bb"/><path d="M63.447,0A63.112,63.112,0,0,1,108.3,18.767a64.406,64.406,0,0,1-20.587,104.5,62.978,62.978,0,0,1-69.134-13.893A64.545,64.545,0,0,1,4.833,39.549,63.434,63.434,0,0,1,63.447,0ZM36,25.892a16.1,16.1,0,0,0-8.13.24l.185.194.053.054.768.116A25.42,25.42,0,0,1,41.59,31.312a26.389,26.389,0,0,1,4.153,3.583,11.9,11.9,0,0,1,2.8,4.451c.384,1.543,1.244,2.8,1.651,4.242,1.336,4.746,1.889,11.632-1.182,15.834-1.067,1.473-2.9,2.954-1.482,5.281.061.116-.169.372-.169.574a8.959,8.959,0,0,0-.1,2.117c.322,2.07.714,4.133,1.09,6.2a2.03,2.03,0,0,1,.107.411c2.18,6.2,4.714,12.112,10.157,16.284,2.3,1.768,2.388,3.3.852,5.715-1.589,2.567-3.3,5.087-4.837,7.692h2.088l.169-.318c1.136-1.923,2.334-3.769,3.524-5.715s2.319-3.916,3.562-5.824a2.619,2.619,0,0,1,1.451-1.055h0l.315-.062a1.031,1.031,0,0,1,.98.343,1.055,1.055,0,0,1,.195,1.029c-.353,1.031-.653,2.117-.921,3.226-.606,2.481-1.075,5.048-1.666,7.336.8-.163,1.175-.116,2-.287.322-1.954,1.059-4.7,1.628-6.863.269-1.047.791-3.8,1.6-4.7s3.324-1.644,5.32-2.621a4.713,4.713,0,0,1,1.274-.45,4.409,4.409,0,0,1,1.236.054,18,18,0,0,1,2.7.636,13.646,13.646,0,0,1,6.38,5.622c1.566,2.6,4.368,4.614,6.672,6.583a4.573,4.573,0,0,0,4.054.985h.046c1.367.923,3.984,1.683,5.205,1.225s3.025-1.38,3.025-2.861a3.22,3.22,0,0,0,.714-.458,1.437,1.437,0,0,0,.138-1.946c-1.574-2.644-5.144-3.831-7.539-5.575q-5.052-3.66-9.98-7.537a7.709,7.709,0,0,1-1.589-1.5c-1.059-1.45-1.075-3.621-1.651-5.327A21.016,21.016,0,0,0,82.8,72.162a42.639,42.639,0,0,1-2.526-3.877c-2.165-3.792-4.315-7.584-7.731-10.391-1.866-1.535-1.712-3.451-1.658-5.637a14.764,14.764,0,0,0-1.912-7.685c-2.91-5.126-8.322-7.312-13.927-7.754a5.778,5.778,0,0,1-2.756-.868,26.579,26.579,0,0,1-3.24-2.954A25.826,25.826,0,0,0,36,25.892Zm235.71,9.558a7.761,7.761,0,0,1,3.9.91,5.969,5.969,0,0,1,2.192,2.334,9.987,9.987,0,0,1,1.008,3.521,34.661,34.661,0,0,1,.2,4.455,20.984,20.984,0,0,1-1.283,6.726,45.535,45.535,0,0,1-3.223,6.979,70.478,70.478,0,0,1-4.422,6.813c-1.612,2.239-3.254,4.36-4.873,6.33h0l-.359.435,1.375,1.013.3-.38a35.838,35.838,0,0,1,3.468-3.861,4.219,4.219,0,0,1,2.834-1.314,6.481,6.481,0,0,1,3.323.9,8.294,8.294,0,0,1,2.467,2.374,11,11,0,0,1,1.528,3.363,14.086,14.086,0,0,1,.5,3.956c-.015,1.171-.076,2.3-.183,3.363a21.241,21.241,0,0,1-.535,3.054,19.284,19.284,0,0,1-1,2.959,21.421,21.421,0,0,1-1.665,3.039h0l-1.192,1.828,1.856-1.084c.84-.483,1.642-.926,2.5-1.393s1.711-.973,2.6-1.535,1.772-1.195,2.643-1.875a27.843,27.843,0,0,0,2.291-1.994h0l.115-.111.145-.649c.061-.245.122-.514.191-.791.5-2.1,1.008-4.146,1.612-6.259s1.108-4.059,1.528-5.768a2.628,2.628,0,0,1,.825-1.3,5.441,5.441,0,0,1,1.528-.95,8.181,8.181,0,0,1,1.772-.538,8.79,8.79,0,0,1,1.665-.158c1.062.016,1.444.269,1.574.419a1.538,1.538,0,0,1,.351,1.108,10.622,10.622,0,0,1-.359,2.113c-.244.981-.5,2.073-.894,3.284s-.756,2.524-1.153,3.956-.787,2.833-1.161,4.273-.68,2.849-.932,4.186a23.742,23.742,0,0,0-.4,3.743,7.974,7.974,0,0,0,.336,2.714,1.836,1.836,0,0,0,1.848,1.306,5.955,5.955,0,0,0,2.987-.9,24.871,24.871,0,0,0,3.132-2.129c1.031-.823,2.062-1.685,3.055-2.564h0l.672-.593v-.206c.1-.8.206-1.622.321-2.477.221-1.48.474-3.046.764-4.645s.588-3.046.9-4.5.634-2.777.94-3.956a26.64,26.64,0,0,1,.917-2.9,7.162,7.162,0,0,1,.527-1.139,1.954,1.954,0,0,1,.5-.562,1.584,1.584,0,0,1,.68-.253,7.073,7.073,0,0,1,1.23-.055,7.223,7.223,0,0,1,1.291.1.574.574,0,0,1,.412.222,1.415,1.415,0,0,1,.183.712h0V72.79l-.046,3.165h0v4.178h1.169l.145-.285q.7-1.432,1.581-3.165a20.449,20.449,0,0,1,1.978-3.165,11.306,11.306,0,0,1,2.482-2.374,5.017,5.017,0,0,1,3.055-.894,2.851,2.851,0,0,1,1.085.214,2.765,2.765,0,0,1,.9.57,2.486,2.486,0,0,1,.6.87,2.932,2.932,0,0,1,.206,1.187A12.378,12.378,0,0,1,328,74.674h0v.087c-.122.688-.252,1.369-.4,2.16s-.29,1.559-.412,2.295a13.142,13.142,0,0,0-.206,1.939,8.282,8.282,0,0,0,.229,2.263A4.742,4.742,0,0,0,327.9,85a2.816,2.816,0,0,0,1.077.894,2.965,2.965,0,0,0,1.23.269,8.549,8.549,0,0,0,3.376-.688c.145-.055.283-.127.42-.19h0l.412-.19.084-.19c.252-.617.481-1.116.718-1.583a22.727,22.727,0,0,1,2.612-3.956,19.344,19.344,0,0,1,7.6-5.642A15.217,15.217,0,0,1,347.3,73.1a4.741,4.741,0,0,0,3.536-4.131c.16-1.915.4-3.83.726-5.713a71.383,71.383,0,0,1,1.917-8.308,53.951,53.951,0,0,1,2.734-7.264,31.824,31.824,0,0,1,3.323-5.666,15.682,15.682,0,0,1,3.819-3.679,6.974,6.974,0,0,1,3.964-1.242,3.908,3.908,0,0,1,2.421.791,5.913,5.913,0,0,1,1.635,2.136,11.045,11.045,0,0,1,.909,3.165,23.059,23.059,0,0,1,.244,3.822c-.015.791-.061,1.63-.138,2.493a55.052,55.052,0,0,1-1.764,9.258,89.252,89.252,0,0,1-2.887,8.546c-1.107,2.769-2.276,5.507-3.6,8.245s-2.589,5.618-3.819,8.57a10.99,10.99,0,0,0-.374,1.242c-.122.491-.244,1-.359,1.583s-.214,1.163-.29,1.725a15.626,15.626,0,0,0-.13,1.741,16.968,16.968,0,0,0,.092,2.01,7.8,7.8,0,0,0,.4,1.772,3.45,3.45,0,0,0,.848,1.361,2.1,2.1,0,0,0,1.467.578,4.741,4.741,0,0,0,1.581-.261,11.47,11.47,0,0,0,1.7-.728c.565-.293,1.192-.657,1.78-1.037s1.169-.775,1.726-1.171c.939-.68,1.589-.831,2.169-.506a2.941,2.941,0,0,1,1.077,1.306,5.36,5.36,0,0,1,.466,1.424,4.146,4.146,0,0,1,.008,1.076c-.229,1.765-2.009,2.825-3.582,3.759h0l-.664.4c-.672.419-1.344.823-2.07,1.211s-1.436.744-2.123,1.037a16.256,16.256,0,0,1-2.016.72,6.091,6.091,0,0,1-1.719.253,6.846,6.846,0,0,1-3.2-1.06,9.262,9.262,0,0,1-2.062-1.828,10.483,10.483,0,0,1-1.78-3.165h0l-.275-.72-.542.53a32.363,32.363,0,0,1-2.673,2.374,20.051,20.051,0,0,1-2.887,1.9,17.057,17.057,0,0,1-3,1.274,9.469,9.469,0,0,1-2.979.435,6.758,6.758,0,0,1-3.559-.973,8.034,8.034,0,0,1-2.5-2.516,11.761,11.761,0,0,1-1.474-3.592,17.179,17.179,0,0,1-.435-3.387h0v-.7l-.878.3a3.1,3.1,0,0,1-.382.127,8.463,8.463,0,0,1-2.666.38,6.693,6.693,0,0,1-3.819-1.06,7.274,7.274,0,0,1-2.291-2.675,14.033,14.033,0,0,1-1.253-3.8c-.267-1.408-.481-2.88-.642-4.368h0l-.053-.459h-1.344l-6.5,17.867c-.321.886-.634,1.63-.909,2.208a7.5,7.5,0,0,1-.81,1.353,2.161,2.161,0,0,1-.764.633,2.221,2.221,0,0,1-.924.166,3.281,3.281,0,0,1-1.955-.554,3.536,3.536,0,0,1-1.115-1.464,7.728,7.728,0,0,1-.542-2.224,4.019,4.019,0,0,1-.053-.791h0l-.061-1.06-.764.538c-.229.166-.458.34-.7.506a30.619,30.619,0,0,1-3.918,2.374,29.046,29.046,0,0,1-4.262,1.757,12.572,12.572,0,0,1-4.033.649,7.337,7.337,0,0,1-2.78-.522,4.441,4.441,0,0,1-1.749-1.314,5.016,5.016,0,0,1-.939-2.049,11.824,11.824,0,0,1-.267-2.785c.008-.324.046-.665.046-1.013h0l.061-1.013-.833.53a27.965,27.965,0,0,1-3.055,1.717,31.391,31.391,0,0,1-4.048,1.583c-.55.174-1.138.3-1.757.435a12.953,12.953,0,0,0-2.971.886,28.8,28.8,0,0,1-4.461,1.852,12.348,12.348,0,0,1-6,.166c-.512-.1-1.023-.19-1.528-.277a19.484,19.484,0,0,1-4.8-1.282h0l-.718-.3c-.657-.317-1.65-.688-2.551-1.108h0l-.267-.127-.237.174a25.4,25.4,0,0,1-2.956,1.852,18.263,18.263,0,0,1-3.2,1.321,11.505,11.505,0,0,1-3.437.467c-1.031-.024-1.894-.878-2.658-2.556a20.083,20.083,0,0,1-1.108-8.008,42.924,42.924,0,0,1,.336-4.51c.206-1.59.451-3.308.764-5.246h0l.092-.6h-1.436L230.48,99.362a4.057,4.057,0,0,1-1.367,1.733,3.163,3.163,0,0,1-1.726.427,3.34,3.34,0,0,1-1.955-.554,3.5,3.5,0,0,1-1.115-1.472,7.608,7.608,0,0,1-.542-2.224.822.822,0,0,0,0-.135h0l-.084-.989-.833.538c-.886.522-1.848,1.068-2.857,1.583a30.931,30.931,0,0,1-3.055,1.361,21.324,21.324,0,0,1-2.979.918,11.122,11.122,0,0,1-2.681.317,3.973,3.973,0,0,1-1.971-.5,4.537,4.537,0,0,1-1.4-1.361,8.516,8.516,0,0,1-1.024-2.168,23.02,23.02,0,0,1-.764-2.888h0l-.214-1.108-.672.886a28.879,28.879,0,0,1-2.6,2.951A20.947,20.947,0,0,1,199.9,99a12.779,12.779,0,0,1-2.78,1.5,7.152,7.152,0,0,1-2.635.506,5.369,5.369,0,0,1-1.932-.388,3.941,3.941,0,0,1-1.528-1.187,6.312,6.312,0,0,1-1.069-2.247,12.794,12.794,0,0,1-.367-3.585,48.5,48.5,0,0,1,.764-6.829c.252-1.559.55-3.252.871-5.056h0l.214-1.2-7.149,4.858.053.34a13.424,13.424,0,0,1,.168,2.3,13.933,13.933,0,0,1-3.185,8.791,16.055,16.055,0,0,1-3.422,3.039,20.109,20.109,0,0,1-4.216,2.144,25.32,25.32,0,0,1-4.72,1.242,27.417,27.417,0,0,1-4.957.364,26.313,26.313,0,0,1-6.79-1,19,19,0,0,1-5.858-2.777,14,14,0,0,1-4.094-4.574,12.555,12.555,0,0,1-1.482-6.386,8.911,8.911,0,0,1,.642-3.331,8.2,8.2,0,0,1,1.528-2.374,6.172,6.172,0,0,1,1.948-1.432,4.222,4.222,0,0,1,1.994-.467,2.43,2.43,0,0,1,1.627.593,2.186,2.186,0,0,1,.665,1.788,5.131,5.131,0,0,1-.13,1.092c-.084.388-.16.768-.252,1.179s-.176.878-.26,1.408a11.955,11.955,0,0,0-.13,1.646,6.27,6.27,0,0,0,.764,3.339,7.138,7.138,0,0,0,2.23,2.374,10.654,10.654,0,0,0,3.277,1.424,16.992,16.992,0,0,0,3.9.514,20.43,20.43,0,0,0,4.766-.514,15.029,15.029,0,0,0,4.277-1.678,10.12,10.12,0,0,0,3.055-2.754,6.482,6.482,0,0,0,1.2-3.743,6.231,6.231,0,0,0-.962-3.505,12.416,12.416,0,0,0-2.719-2.944,28.618,28.618,0,0,0-3.926-2.611c-1.482-.831-2.987-1.654-4.537-2.516s-3.086-1.765-4.545-2.682a25.627,25.627,0,0,1-4-3.1,14.1,14.1,0,0,1-2.818-3.782,9.967,9.967,0,0,1-1.023-4.748,11.2,11.2,0,0,1,1.222-4.858,12.594,12.594,0,0,1,3.544-4.265,18.159,18.159,0,0,1,5.767-2.951,24.869,24.869,0,0,1,8.028-1.029,18.74,18.74,0,0,1,5.706,1,17.1,17.1,0,0,1,4.957,2.651,13.542,13.542,0,0,1,3.483,4.043,10.139,10.139,0,0,1,1.276,5.191,11.319,11.319,0,0,1-.611,3.434,15.369,15.369,0,0,1-1.8,3.577,8.929,8.929,0,0,1-2.658,2.73,5.064,5.064,0,0,1-2.574.87,2.178,2.178,0,0,1-1.6-.609A2.24,2.24,0,0,1,176.5,70.1a5.965,5.965,0,0,1,.374-1.844,11.969,11.969,0,0,1,1.2-2.374,11.82,11.82,0,0,0,1.115-2.216,6.26,6.26,0,0,0,.374-1.962,4.15,4.15,0,0,0-.672-2.421,5.9,5.9,0,0,0-1.986-1.8,10.818,10.818,0,0,0-3.132-1.147A21.476,21.476,0,0,0,169.7,55.9a14.271,14.271,0,0,0-4.27.506,9.881,9.881,0,0,0-3.055,1.432A5.948,5.948,0,0,0,160.6,59.8a4.566,4.566,0,0,0-.6,2.129,5.409,5.409,0,0,0,.886,3.2,11.923,11.923,0,0,0,2.719,2.754,29.72,29.72,0,0,0,3.918,2.469h0l4.537,2.445q2.36,1.258,4.583,2.7a22.964,22.964,0,0,1,3.987,3.252,13.556,13.556,0,0,1,1.612,1.97h0l.328.475,12.091-11.268h.092l.183-.214a5.043,5.043,0,0,1,1.184-1.06,3.214,3.214,0,0,1,1.68-.491,6.345,6.345,0,0,1,2.375.459c.313.174.5.34.5.514-.222,1.234-.466,2.58-.726,4.107s-.55,3.062-.8,4.613-.512,3.023-.764,4.526-.474,2.8-.672,3.956-.359,2.089-.474,2.793c-.137.855-.167,1.05-.174,1.125l0,.047a6.89,6.89,0,0,0,.107,1.329,4.768,4.768,0,0,0,.39,1.187,2.746,2.746,0,0,0,.764.926,1.933,1.933,0,0,0,1.176.4,3.911,3.911,0,0,0,1.772-.427,6.272,6.272,0,0,0,1.642-1.25,8.706,8.706,0,0,0,1.36-1.97,10.932,10.932,0,0,0,.9-2.651h0l3.651-17.875c.084-.388.458-.744,1.115-1.044a5.6,5.6,0,0,1,2.544-.491,4.751,4.751,0,0,1,2.49.6,1.333,1.333,0,0,1,.764,1.187,20.528,20.528,0,0,1-.237,2.532c-.145,1.06-.336,2.271-.58,3.569s-.489,2.635-.764,4.02-.527,2.651-.764,3.877-.428,2.263-.58,3.165a14.733,14.733,0,0,0-.237,1.962h0V91.2a7.085,7.085,0,0,0,.2,1.583,2.573,2.573,0,0,0,.657,1.211,1.951,1.951,0,0,0,1.375.491,6.107,6.107,0,0,0,1.994-.38,17.7,17.7,0,0,0,2.368-1.037c.833-.435,1.688-.926,2.536-1.464.665-.419,1.337-.886,2.055-1.432h0l.183-.135.076-.791c.206-2.026.466-4.083.764-6.18s.649-4.107,1.016-6.053.726-3.616,1.054-4.969a5.143,5.143,0,0,1,1.352-2.445,3.333,3.333,0,0,1,2.574-.9,2.259,2.259,0,0,1,2.093.965,5.452,5.452,0,0,1,.6,2.841,13.251,13.251,0,0,1-.122,1.369c-.076.593-.168,1.234-.283,1.954s-.237,1.456-.359,2.216-.237,1.464-.351,2.113-.206,1.211-.283,1.693a9.305,9.305,0,0,0-.13,1.044h0v.53h1.489l.145-.269c.145-.261.367-.681.672-1.25h0L235.3,79.92c.4-.791.817-1.583,1.276-2.374s.886-1.622,1.283-2.374.726-1.424,1.085-2,.6-1,.764-1.282A5.836,5.836,0,0,1,242,69.515a6.27,6.27,0,0,1,2.895-.6,2.637,2.637,0,0,1,2.291,1.3,6.742,6.742,0,0,1,.855,3.814,8.352,8.352,0,0,1-.168,1.211c-.107.593-.244,1.337-.42,2.176s-.359,1.757-.573,2.777-.4,2.057-.58,3.118-.328,2.129-.443,3.165q-.175,1.449-.206,2.912a11.146,11.146,0,0,0,.5,3.8,2.251,2.251,0,0,0,2.1,1.78,3.362,3.362,0,0,0,1.39-.34,12.841,12.841,0,0,0,1.528-.839c.275-.182.573-.388.909-.633h0l.183-.142V92.77c.061-.688.122-1.393.2-2.129.214-2.049.5-4.534.863-7.3s.84-5.919,1.436-9.369c.4-2.271.894-4.866,1.482-7.675s1.283-5.7,2.055-8.554,1.65-5.681,2.6-8.4a49.827,49.827,0,0,1,3.147-7.193,20.062,20.062,0,0,1,3.666-4.969A5.534,5.534,0,0,1,271.711,35.45ZM350.1,76.779l-.168.182a14.787,14.787,0,0,0-4.163,2.92,19.776,19.776,0,0,0-3.055,4.067,21.366,21.366,0,0,0-1.91,4.423,15.3,15.3,0,0,0-.7,4.091,7.278,7.278,0,0,0,.137,1.527,3.948,3.948,0,0,0,.634,1.488,3.383,3.383,0,0,0,1.337,1.1,5.075,5.075,0,0,0,2.146.435h.046a2.97,2.97,0,0,0,1.4-.356,6.015,6.015,0,0,0,1.268-.878,10.509,10.509,0,0,0,1.115-1.219,13.817,13.817,0,0,0,.962-1.393,25.814,25.814,0,0,0,1.833-3.719h0l.015-.1v-.158a10.213,10.213,0,0,1-.137-1.5c-.069-.7-.069-1.5-.069-2.374V78.084c-.031-.783-.038-1.044-.382-1.187h0ZM269.137,76.3a6.385,6.385,0,0,0-2.589.514,7.312,7.312,0,0,0-2.414,1.662,11.025,11.025,0,0,0-1.948,2.864,15.647,15.647,0,0,0-1.26,4.162c-.222,1.25-.42,2.461-.573,3.529s-.29,1.907-.39,2.849-.2,1.86-.275,2.651c-.053.53.367.712,2.032,1.187a17.448,17.448,0,0,0,2.009.522,8.267,8.267,0,0,0,1.635.158,6.835,6.835,0,0,0,3.819-1.068,8.535,8.535,0,0,0,3.093-4.131,29.214,29.214,0,0,0,1.528-6.876l0,.008c.078-.655.131-1.337.16-2.021l.026-1.025a8.19,8.19,0,0,0-.176-1.8,3.853,3.853,0,0,0-.764-1.583,4.057,4.057,0,0,0-1.528-1.147A6.308,6.308,0,0,0,269.137,76.3Zm96.538-32.087h-.038a2.938,2.938,0,0,0-2.391,1.63,16.1,16.1,0,0,0-1.68,3.751,47.87,47.87,0,0,0-1.283,4.946c-.374,1.8-.68,3.521-.94,5.207s-.458,3.181-.619,4.526-.267,2.3-.321,2.864c-.107,1.155-.206,2.271-.275,3.347s-.122,2.049-.16,2.944-.076,1.67-.076,2.326h0l-.063,4.363,1-2.322v.032c1.337-3.023,2.559-6.093,3.735-9.092.466-1.258.947-2.619,1.444-4.067s.94-2.864,1.352-4.3.779-2.864,1.085-4.249a37.65,37.65,0,0,0,.665-4.012c.168-1.654.267-2.983.267-3.956a7.813,7.813,0,0,0-.321-2.872,1.489,1.489,0,0,0-1.383-1.068Zm-94.384-3a2.466,2.466,0,0,0-1.841,1.187,14.136,14.136,0,0,0-1.528,2.8,37.357,37.357,0,0,0-1.482,3.956c-.481,1.527-.955,3.078-1.405,4.692s-.9,3.355-1.291,5-.764,3.268-1.1,4.811-.626,2.9-.871,4.162-.443,2.255-.588,3.046h0l-.619,3.4,1.535-3.023c.619-1.195,1.321-2.469,2.1-3.759s1.558-2.651,2.375-4.083,1.581-2.872,2.345-4.36,1.467-3.023,2.1-4.605a41.062,41.062,0,0,0,1.6-4.8,29.414,29.414,0,0,0,.863-5.04c0-.079-.008-.222-.046-.665a4.736,4.736,0,0,0-.252-1.084,3.525,3.525,0,0,0-.611-1.06A1.646,1.646,0,0,0,271.29,41.218Z" transform="translate(0 0)" fill-rule="evenodd" fill="url(#a)"/></g></g><path d="M-69.192-16.008h-4.152V0h4.152V-6.936L-63.768,0h5.376l-6.936-8.424,6.36-7.584H-64.1l-5.088,6.6ZM-52.392,0V-9.792L-44.736,0h4.152V-16.008h-4.152v9.792l-7.656-9.792h-4.152V0ZM-20.28-7.992a8.281,8.281,0,0,0-2.52-6,9.125,9.125,0,0,0-6.312-2.376,9.125,9.125,0,0,0-6.312,2.376,8.281,8.281,0,0,0-2.52,6,8.306,8.306,0,0,0,2.52,5.976A9.125,9.125,0,0,0-29.112.36,9.125,9.125,0,0,0-22.8-2.016,8.306,8.306,0,0,0-20.28-7.992Zm-8.832-4.344A4.792,4.792,0,0,1-25.9-11.064a4.32,4.32,0,0,1,1.3,3.072A4.408,4.408,0,0,1-25.9-4.92a4.387,4.387,0,0,1-3.216,1.248,4.542,4.542,0,0,1-3.24-1.272A4.068,4.068,0,0,1-33.624-7.92a4.388,4.388,0,0,1,1.272-3.144A4.611,4.611,0,0,1-29.112-12.336Zm9.792-3.672L-14.544,0h4.224l3.072-9.264L-4.344,0H-.1L5.016-16.008H.672L-2.352-5.664-5.5-16.008H-8.808L-12.192-5.664l-2.784-10.344Zm26.016,0V0H15.84V-3.528H10.848v-12.48Zm20.376,0h-9.1V0h9.1V-3.528H22.128v-2.76h4.68V-9.816h-4.68V-12.48h4.944ZM35.52,0a8.694,8.694,0,0,0,6.144-2.424,7.381,7.381,0,0,0,2.088-5.544A7.814,7.814,0,0,0,41.52-13.8a8.929,8.929,0,0,0-6.36-2.208H29.712V0ZM33.864-12.48h1.008a4.664,4.664,0,0,1,3.312,1.008,4.786,4.786,0,0,1,1.248,3.5A4.361,4.361,0,0,1,38.208-4.68a4.78,4.78,0,0,1-3.5,1.152h-.84ZM54.072-5.832H57.48A2.847,2.847,0,0,1,56.5-4.056a3.428,3.428,0,0,1-2.3.744,3.787,3.787,0,0,1-2.928-1.224,5.007,5.007,0,0,1-1.272-3.456,5.4,5.4,0,0,1,1.392-3.672,3.867,3.867,0,0,1,2.736-1.1,3.357,3.357,0,0,1,2.232.792A3.917,3.917,0,0,1,57.5-10.368L61.464-12a7.844,7.844,0,0,0-2.856-3.288,8.557,8.557,0,0,0-4.32-1.08,8.564,8.564,0,0,0-6.216,2.352,8.341,8.341,0,0,0-2.4,6,8.067,8.067,0,0,0,2.3,5.784A8.267,8.267,0,0,0,54.12.144a7.814,7.814,0,0,0,5.64-2.016c1.92-1.776,2.568-4.032,2.568-7.2H54.072ZM74.064-16.008h-9.1V0h9.1V-3.528H69.12v-2.76H73.8V-9.816H69.12V-12.48h4.944Z" transform="translate(4020 -6562)" fill="#1380bc"/></g></svg>